<?xml version="1.0" standalone="no"?>
<!DOCTYPE svg PUBLIC "-//W3C//DTD SVG 1.1//EN" "http://www.w3.org/Graphics/SVG/1.1/DTD/svg11.dtd">
<svg t="1509822932340" class="icon" style="" viewBox="0 0 1000 1000" version="1.1" xmlns="http://www.w3.org/2000/svg" p-id="3625" xmlns:xlink="http://www.w3.org/1999/xlink" width="20" height="20"><defs><style type="text/css"></style></defs><path d="M856.688 395.97866666666647l-312.49999999999966-312.5000000000004c-24.405999999999963-24.406000000000034-63.96899999999992-24.40600000000005-88.376-5.684341886080802e-14l-312.5000000000004 312.49999999999966c-24.406000000000034 24.405999999999963-24.40600000000005 63.96899999999992-5.684341886080802e-14 88.376 24.405999999999963 24.406000000000034 63.96899999999992 24.40600000000005 88.376 5.684341886080802e-14l205.81300000000013-205.81299999999976-4.547473508864641e-13 599.125c-2.842170943040401e-14 34.53099999999999 27.9689999999999 62.499999999999986 62.49999999999995 62.50000000000006s62.499999999999986-27.9689999999999 62.50000000000006-62.49999999999995l4.547473508864641e-13-599.125 205.81299999999976 205.81300000000013c12.187999999999988 12.188000000000015 28.187999999999974 18.313000000000027 44.18799999999996 18.313000000000027s31.999999999999993-6.094999999999963 44.18799999999999-18.312999999999946c24.406000000000034-24.405999999999963 24.40600000000005-63.96899999999992 5.684341886080802e-14-88.376z" fill="#ffffff" p-id="3626"></path></svg>