<?xml version="1.0" encoding="UTF-8"?>
<svg height="100%" viewBox="0 0 20 41" version="1.1" xmlns="http://www.w3.org/2000/svg" xmlns:xlink="http://www.w3.org/1999/xlink">
    <!-- Generator: Sketch 47.1 (45422) - http://www.bohemiancoding.com/sketch -->
    <title>iphonex_large</title>
    <desc>Created with Sketch.</desc>
    <defs></defs>
    <g id="Page-1" stroke="none" stroke-width="1" fill="none" fill-rule="evenodd">
        <g id="iphonex_large" transform="translate(0.000000, -2.000000)">
            <path d="M17,43 C18.64,43 20,41.66 20,40.01 L20,16.14 L20,11.4 L20,4.99 C20,3.35 18.66,2 17.01,2 L2.99,2 C1.34,2 0,3.34 0,4.99 L0,7.46 L0,17.12 L0,40.01 C0,41.66 1.36,43 3,43 L17,43 Z M12.6,3.3 C12.81,3.3 12.98,3.47 12.98,3.68 C12.98,3.89 12.81,4.06 12.6,4.06 C12.39,4.06 12.22,3.89 12.22,3.68 C12.22,3.47 12.39,3.3 12.6,3.3 Z M8.28,3.67 C8.28,3.63 8.29,3.49 8.47,3.49 L11.21,3.49 C11.39,3.49 11.4,3.63 11.4,3.67 L11.4,3.7 C11.4,3.74 11.39,3.88 11.21,3.88 L8.47,3.88 C8.29,3.88 8.28,3.74 8.28,3.7 L8.28,3.67 L8.28,3.67 Z M13.98,5 C14.71,5 14.94,4.56 15,4.17 C15.01,4.11 15,3.39 15,3.36 C15.03,3.11 15.29,3.02 15.44,3 L17.2,3 C18.19,3 19,3.81 19,4.8 L19,40.2 C19,41.19 18.19,42 17.2,42 L2.8,42 C1.81,42 1,41.19 1,40.2 L1,4.8 C1,3.81 1.81,3 2.8,3 L4.56,3 C4.71,3.02 4.97,3.11 5,3.36 C5,3.38 4.99,4.11 5,4.17 C5.07,4.56 5.3,5 6.02,5 L13.98,5 Z" id="iPhone_X_1_" fill="#333333" fill-rule="nonzero"></path>
            <rect id="Rectangle-path" x="0" y="0" width="20" height="45"></rect>
        </g>
    </g>
</svg>