<?xml version="1.0" standalone="no"?><!DOCTYPE svg PUBLIC "-//W3C//DTD SVG 1.1//EN" "http://www.w3.org/Graphics/SVG/1.1/DTD/svg11.dtd"><svg t="1512024629051" class="icon" style="" viewBox="0 0 1024 1024" version="1.1" xmlns="http://www.w3.org/2000/svg" p-id="3714" xmlns:xlink="http://www.w3.org/1999/xlink" width="200" height="200"><defs><style type="text/css"></style></defs><path d="M687.968 665.824l-353.376 0c-13.024 0-23.552 10.944-23.552 24.416l0 4.896c0 13.472 10.528 24.416 23.552 24.416l353.376 0c12.96 0 23.552-10.944 23.552-24.416l0-4.896c0.032-13.472-10.592-24.416-23.552-24.416l0 0zM512 21.344c-270.976 0-490.656 219.68-490.656 490.656s219.68 490.656 490.656 490.656c271.008 0 490.656-219.68 490.656-490.656s-219.68-490.656-490.656-490.656l0 0zM627.2 236.384c0-14.112 11.104-25.568 24.704-25.568 13.664 0 24.608 11.456 24.608 25.568l0 68.736c0 14.112-11.104 25.568-24.608 25.568-13.696 0-24.704-11.424-24.704-25.568l0-68.736zM487.264 236.384c0-14.112 11.04-25.568 24.672-25.568s24.672 11.456 24.672 25.568l0 68.736c0 14.112-11.04 25.568-24.672 25.568-13.664 0-24.672-11.456-24.672-25.568l0-68.736zM346.496 236.384c0-14.112 11.072-25.568 24.672-25.568 13.664 0 24.672 11.456 24.672 25.568l0 68.736c0 14.112-11.04 25.568-24.672 25.568s-24.672-11.424-24.672-25.568l0-68.736zM779.616 292.544l0 490.688c0 32.672-26.88 29.856-26.88 29.856l-480.576 0c-31.104 0-27.904-29.088-27.904-29.088l0-491.456c0-34.208 27.904-27.04 27.904-27.04s22.56-0.192 50.528 0c-3.904 96.608 38.88 92.32 48.48 92.32 71.04-2.336 59.616-92.32 59.616-92.32s5.472-0.192 28 0c-2.336 98.976 43.552 90.784 53.152 90.784 64.8-10.88 53.376-91.968 53.376-91.968s14.752-0.576 28 0c4.736 90.784 45.088 92.768 58.624 92.768 56.992-3.904 47.904-92.384 47.904-92.384s21.792-0.928 53.728 0.16c30.24-2.72 26.016 27.68 26.016 27.68l0 0zM687.968 545.312l-353.376 0c-13.024 0-23.552 10.976-23.552 24.448l0 4.896c0 13.472 10.528 24.416 23.552 24.416l353.376 0c12.96 0 23.552-10.976 23.552-24.416l0-4.896c0.032-13.536-10.592-24.448-23.552-24.448l0 0zM689.504 424.736l-353.344 0c-12.992 0-23.552 10.912-23.552 24.384l0 4.896c0 13.472 10.528 24.416 23.552 24.416l353.344 0c13.024 0 23.552-10.912 23.552-24.416l0-4.896c0.032-13.472-10.496-24.384-23.552-24.384l0 0z" p-id="3715" fill="#1166d8"></path></svg>