<?xml version="1.0" standalone="no"?><!DOCTYPE svg PUBLIC "-//W3C//DTD SVG 1.1//EN" "http://www.w3.org/Graphics/SVG/1.1/DTD/svg11.dtd"><svg t="1512014235314" class="icon" style="" viewBox="0 0 1024 1024" version="1.1" xmlns="http://www.w3.org/2000/svg" p-id="1850" xmlns:xlink="http://www.w3.org/1999/xlink" width="21px" height="21px"><defs><style type="text/css"></style></defs><path fill="#d81e06" d="M899.370003 387.264091c0 11.473309-8.856715 20.765953-19.767206 20.765953-10.909467 0-19.751856-9.293667-19.751856-20.765953 0-1.038656 0.145309-2.046612 0.287549-3.050476l-0.287549 0c0-108.091834-83.538625-195.704241-186.570209-195.704241-1.955538 0-3.859911 0.251733-5.816472 0.302899l0-0.605797c-9.532097-1.49198-16.85283-10.044774-16.85283-20.463054 0-10.416234 7.319709-18.955724 16.85283-20.447704l0-0.017396c0.049119 0 0.112564 0 0.158612 0 0.899486-0.135076 1.812275-0.285502 2.755764-0.285502 0.305969 0 0.610914 0.066515 0.912789 0.083911 0.611937-0.033769 1.217734-0.083911 1.843998-0.083911 124.947733 0 226.234581 106.213044 226.234581 237.21875l-0.305969 0C899.210367 385.218502 899.370003 386.225435 899.370003 387.264091zM783.407921 408.031067c-10.908444 0-19.751856-9.293667-19.751856-20.765953 0-2.750647 0.529049-5.382591 1.458211-7.78122-2.308579-49.66719-40.319288-89.406263-87.753623-91.620697-2.176572 0.873903-4.516874 1.39272-6.982018 1.39272-10.906397 0-19.767206-9.292644-19.767206-20.74958 0-10.432607 7.319709-18.971074 16.85283-20.463054l0 0c0.049119 0 0.095167-0.01842 0.144286-0.01842 0.914836-0.13303 1.826602-0.283456 2.771113-0.283456 0.305969 0 0.610914 0.083911 0.912789 0.099261 0.611937-0.049119 1.217734-0.099261 1.843998-0.099261 71.810512 0 130.038682 61.10673 130.038682 136.474254l-0.301875 0c0.145309 1.004887 0.301875 2.01182 0.301875 3.050476C803.174104 398.7374 794.317389 408.031067 783.407921 408.031067zM699.61347 461.70757c15.826454-1.99647 33.238009-1.12359 52.783157 4.027733 54.094012 14.275121 75.721589 50.823526 73.349565 106.48115-2.4017 56.714699-62.153572 158.248164-151.505599 212.542744-59.607586 40.056298-137.396253 67.785849-218.162742 67.785849-170.84097 0-331.447854-104.050798-331.447854-232.388744 0-1.693572 0.160659-3.40454 0.232291-5.101181 0-0.064468 0.008186-0.13303 0.008186-0.183172 0.119727-2.449795 0.272199-4.898567 0.544399-7.349385C135.867946 480.44533 334.302367 278.653441 393.700175 272.580119c55.440683-5.668093 114.549919 12.782118 109.85806 82.008782-0.354064 5.199419-1.506307 10.769274-2.979868 16.489556 44.388976-26.621311 96.625688-45.239344 143.641491-36.182061C708.806853 347.325473 724.538139 411.637198 699.61347 461.70757zM441.30745 483.564367c-128.087237 0-231.890394 71.943542-231.890394 160.710238 0 88.750323 103.803157 160.695912 231.890394 160.695912 128.055514 0 231.874021-71.945589 231.874021-160.695912C673.182494 555.50791 569.362964 483.564367 441.30745 483.564367zM415.8875 763.372098c-67.13605 0-121.537054-50.6424-121.537054-113.089661 0-62.451354 54.401004-113.089661 121.537054-113.089661 67.134003 0 121.55138 50.637284 121.55138 113.089661C537.43888 712.728674 483.021503 763.372098 415.8875 763.372098zM401.709593 638.489856c-21.914102 0-39.661302 18.60166-39.661302 41.530882 0 22.930245 17.747199 41.518602 39.661302 41.518602 21.913079 0 39.678698-18.588357 39.678698-41.518602C441.388291 657.090493 423.622672 638.489856 401.709593 638.489856z" p-id="1851"></path></svg>